<?xml version="1.0" encoding="UTF-8"?>
<svg width="44px" height="44px" viewBox="0 0 44 44" version="1.1" xmlns="http://www.w3.org/2000/svg" xmlns:xlink="http://www.w3.org/1999/xlink">
   <defs>
        <polygon id="path-1" points="0 0.0557578856 44 0.0557578856 44 43.3122938 0 43.3122938"></polygon>
        <polygon id="path-3" points="0.63183516 0 24.1130007 0 24.1130007 28.1726542 0.63183516 28.1726542"></polygon>
    </defs>
    <g id="Page-1" stroke="none" stroke-width="1" fill="none" fill-rule="evenodd">
        <g id="Тизер---Медкарта" transform="translate(-146.000000, -268.000000)">
            <g id="MAX" transform="translate(120.000000, 161.000000)">
                <g id="logo" transform="translate(26.000000, 107.000000)">
                    <g id="Group-3" transform="translate(0.000000, 0.687569)">
                        <mask id="mask-2" fill="white">
                            <use xlink:href="#path-1"></use>
                        </mask>
                        <g id="Clip-2"></g>
                        <path d="M8.82674375,2.81373125 L8.82674375,4.94016875 C8.83086875,5.07629375 8.80611875,5.21173125 8.75386875,5.33823125 C8.70161875,5.46404375 8.62393125,5.57748125 8.52561875,5.67098125 C8.47749375,5.71498125 8.42593125,5.75348125 8.37093125,5.78716875 C7.41943125,6.38735625 6.61849375,7.20066875 6.03136875,8.16316875 C5.40643125,9.18273125 4.99118125,10.3171063 4.80693125,11.4989188 C4.73611875,11.9272313 4.69968125,12.3576062 4.67080625,12.7893562 C4.61786875,13.8756062 4.75399375,14.9618563 5.07299375,16.0013563 C5.30949375,16.8071062 5.60649375,17.5942937 5.96261875,18.3546687 C6.52499375,19.5577937 7.17124375,20.7203562 7.89655625,21.8327312 C8.80680625,23.2317938 9.79199375,24.5799813 10.8486812,25.8711063 C11.4667437,26.6314812 12.1006187,27.3753562 12.7503062,28.1027312 C13.2893063,28.7042938 13.8358687,29.2989813 14.3906812,29.8874813 C14.8753687,30.3962312 15.3593687,30.9056688 15.8571187,31.3999812 C16.4449312,31.9843563 17.0382437,32.5625437 17.6370562,33.1366062 C18.1925562,33.6673563 18.7569937,34.1877937 19.3255562,34.7041063 C20.0543062,35.3668563 20.7947437,36.0172312 21.5454937,36.6559187 C21.6692437,36.7734812 21.8321812,36.8381063 22.0019937,36.8381063 C22.1718062,36.8381063 22.3354312,36.7734812 22.4591812,36.6559187 C23.1728062,36.0481688 23.8774937,35.4294188 24.5718687,34.7989812 C25.1280562,34.2957313 25.6780562,33.7862937 26.2239312,33.2713563 C26.6989937,32.8210438 27.1658062,32.3645438 27.6339937,31.9073562 C27.9344312,31.6151687 28.2334937,31.3209188 28.5256812,31.0204812 C29.0124312,30.5206687 29.4978062,30.0181062 29.9763062,29.5100438 C30.5201187,28.9311688 31.0529312,28.3433562 31.5774937,27.7472938 C32.6527437,26.5180438 33.6867437,25.2564813 34.6561187,23.9399187 C35.4453687,22.8777313 36.1782437,21.7736062 36.8519937,20.6337313 C37.4741812,19.5901063 38.0145562,18.4990438 38.4669312,17.3715438 C38.8409312,16.4564812 39.1076812,15.4994813 39.2603062,14.5225438 C39.3414312,13.9636062 39.3668687,13.3984813 39.3366187,12.8340438 C39.3111812,12.2840437 39.2465562,11.7361063 39.1441187,11.1950438 C38.9213687,9.99535625 38.4531812,8.85548125 37.7691187,7.84691875 C37.2074312,7.01985625 36.4821187,6.31929375 35.6371812,5.78854375 C35.4948687,5.70535625 35.3773062,5.58573125 35.2961812,5.44204375 C35.2150562,5.29766875 35.1724312,5.13473125 35.1738062,4.96973125 C35.1669312,4.72910625 35.1738062,4.48916875 35.1738062,4.24785625 L35.1738062,0.71685625 C35.1683062,0.58210625 35.1985562,0.44873125 35.2611188,0.32910625 C35.3174937,0.22116875 35.4109937,0.13798125 35.5230562,0.09398125 C35.6358062,0.04998125 35.7602437,0.04791875 35.8743687,0.08848125 C36.1438687,0.18610625 36.4092437,0.29748125 36.6684312,0.42260625 C37.4246812,0.78285625 38.1389937,1.22560625 38.7996812,1.74123125 C39.7559937,2.48373125 40.5961187,3.36510625 41.2918687,4.35785625 C42.2516187,5.73216875 42.9673062,7.26391875 43.4052437,8.88504375 C43.6121812,9.63510625 43.7641187,10.3996062 43.8617437,11.1716688 C43.9270562,11.6611687 43.9662437,12.1527312 43.9799937,12.6456688 C43.9799937,12.8120437 43.9978687,12.9777312 44.0001814,13.1427313 C44.0061187,14.2117938 43.8974937,15.2787938 43.6754312,16.3237938 C43.4478687,17.3894187 43.1329937,18.4344187 42.7349312,19.4477937 C42.4372437,20.2157313 42.0948687,20.9609812 41.7366812,21.7021062 C41.1330562,22.9244812 40.4551812,24.1083562 39.7058062,25.2468563 C38.7639312,26.6926688 37.7484937,28.0889812 36.6636187,29.4296062 C36.0276812,30.2222937 35.3724937,31.0005438 34.6980562,31.7629813 C34.2731812,32.2435438 33.8434937,32.7186063 33.4083062,33.1902312 C32.4238062,34.2599813 31.4021812,35.2960438 30.3661187,36.3128562 C29.7487437,36.9130437 29.1258687,37.5015437 28.4968062,38.0866063 C27.7845562,38.7493563 27.0606187,39.3983562 26.3263687,40.0356687 C25.2105562,41.0064188 24.0761812,41.9537938 22.9088062,42.8606063 C22.8056812,42.9382937 22.7032437,43.0221687 22.6001187,43.1039812 C22.4296187,43.2387313 22.2185562,43.3122938 22.0006187,43.3122938 C21.7840562,43.3122938 21.5723062,43.2387313 21.4018062,43.1039812 C20.5101187,42.4054813 19.6266812,41.7069812 18.7679937,40.9734188 C18.1595562,40.4564187 17.5552437,39.9352937 16.9598687,39.4038562 C16.2606812,38.7830438 15.5642437,38.1512313 14.8856812,37.5049813 C14.5852437,37.2182937 14.2848062,36.9322937 13.9843687,36.6476688 C13.3202437,36.0158563 12.6726187,35.3647937 12.0353062,34.7082313 C11.3684313,34.0303562 10.7159937,33.3387313 10.0773062,32.6326688 C9.02474375,31.4694187 8.00586875,30.2821062 7.03511875,29.0507938 C6.23968125,28.0429187 5.48136875,27.0082312 4.75743125,25.9474188 C4.17718125,25.0907937 3.62855625,24.2121688 3.11293125,23.3101688 C2.89430625,22.9224188 2.67980625,22.5408562 2.48111875,22.1469188 C1.80324375,20.8344812 1.23399375,19.4677312 0.77886875,18.0617937 C0.46743125,17.0766063 0.24399375,16.0666687 0.10993125,15.0422938 C0.06386875,14.6744813 0.03293125,14.3046063 0.01780625,13.9312938 C0.00818125,13.6989188 -0.00281875,13.4603563 0.00061875,13.2238563 C0.00818125,12.5851688 0.04805625,11.9478563 0.12161875,11.3139812 C0.20961875,10.5577313 0.34986875,9.80904375 0.54236875,9.07273125 C0.82493125,7.97891875 1.23193125,6.92154375 1.75374375,5.92123125 C1.92011875,5.60291875 2.10711875,5.30041875 2.28930625,4.98966875 C2.63580625,4.41766875 3.03180625,3.87798125 3.47318125,3.37610625 C4.10155625,2.64804375 4.81449375,1.99835625 5.59686875,1.44148125 C6.28230625,0.95198125 7.01930625,0.54016875 7.79411875,0.21291875 C7.91511875,0.16410625 8.03680625,0.11666875 8.16261875,0.07816875 C8.26093125,0.04654375 8.36680625,0.04860625 8.46443125,0.08298125 C8.56136875,0.11735625 8.64524375,0.18266875 8.70230625,0.26929375 C8.78824375,0.39235625 8.83224375,0.53948125 8.82674375,0.68935625 L8.82674375,2.81373125 Z" id="Fill-1" fill="#FFFFFF" mask="url(#mask-2)"></path>
                    </g>
                    <g id="Group-6" transform="translate(9.625000, 0.000069)">
                        <mask id="mask-4" fill="white">
                            <use xlink:href="#path-3"></use>
                        </mask>
                        <g id="Clip-5"></g>
                        <path d="M0.63449375,11.8052687 L0.63449375,1.05689375 C0.62624375,0.93451875 0.63724375,0.81145625 0.66680625,0.69183125 C0.70186875,0.53439375 0.78574375,0.39276875 0.90605625,0.28620625 C1.02568125,0.17895625 1.17624375,0.11364375 1.33643125,0.09783125 C1.62518125,0.06414375 1.91530625,0.03801875 2.20611875,0.02014375 C2.39793125,0.00983125 2.58836875,-0.00529375 2.77949375,0.00158125 C3.78118125,0.03251875 4.77393125,0.18926875 5.73711875,0.46701875 C6.92786875,0.82245625 8.06155625,1.34908125 9.10243125,2.02970625 C9.78236875,2.47176875 10.4251812,2.96883125 11.0246812,3.51608125 C11.3842438,3.84333125 11.7197438,4.19051875 12.0573063,4.53701875 L12.1301813,4.61470625 C12.1569938,4.65595625 12.1927438,4.68964375 12.2353688,4.71370625 C12.2786813,4.73708125 12.3268063,4.74945625 12.3749313,4.74945625 C12.4237438,4.74945625 12.4725563,4.73708125 12.5144938,4.71370625 C12.5578063,4.68964375 12.5942438,4.65595625 12.6203688,4.61470625 C12.9070562,4.31495625 13.1944313,4.01589375 13.4955562,3.73058125 C14.3645563,2.90145625 15.3311813,2.18301875 16.3748063,1.59176875 C17.3682438,1.02526875 18.4352438,0.60039375 19.5441813,0.32745625 C20.1196188,0.18789375 20.7046813,0.09370625 21.2952438,0.04764375 C21.5860562,0.02633125 21.8761813,0.00158125 22.1683688,0.00570625 C22.4853063,0.00914375 22.8015563,0.03389375 23.1171187,0.06895625 C23.2168063,0.07995625 23.3158063,0.09164375 23.4161813,0.09851875 C23.6024938,0.12326875 23.7750562,0.21333125 23.9022438,0.35289375 C24.0294313,0.49245625 24.1029937,0.67258125 24.1105562,0.86233125 C24.1160563,0.92764375 24.1105562,0.99295625 24.1105562,1.06033125 L24.1105562,22.4924562 C24.1174313,22.8169562 24.0562437,23.1393937 23.9311187,23.4377687 C23.8651188,23.5855812 23.7819313,23.7251437 23.6815563,23.8530187 C23.1260563,24.5769562 22.5533688,25.2871437 21.9628063,25.9835812 C21.4052438,26.6422062 20.8304938,27.2863937 20.2516187,27.9292062 C20.2172438,27.9670187 20.1808063,28.0062062 20.1429938,28.0419562 C20.1010563,28.0880187 20.0481188,28.1223937 19.9896813,28.1437062 C19.9312438,28.1643312 19.8686813,28.1705187 19.8074938,28.1622687 C19.7456188,28.1540187 19.6871812,28.1306437 19.6369937,28.0942062 C19.5854313,28.0577687 19.5448687,28.0103312 19.5166813,27.9546437 C19.4788688,27.8893312 19.4589312,27.8164562 19.4582438,27.7408312 L19.4582438,27.5173937 L19.4582438,6.58439375 L19.4582438,6.40014375 C19.4582438,6.34308125 19.4465563,6.28670625 19.4245563,6.23376875 C19.4128688,6.19595625 19.3936188,6.16158125 19.3674938,6.13201875 C19.3413688,6.10245625 19.3083687,6.07908125 19.2719313,6.06326875 C19.2361813,6.04745625 19.1969938,6.04058125 19.1571187,6.04195625 C19.1179313,6.04333125 19.0794313,6.05295625 19.0436812,6.07151875 C18.8284938,6.16501875 18.6174313,6.27089375 18.4118688,6.38639375 C17.4624313,6.92333125 16.6051188,7.61289375 15.8763688,8.42826875 C15.2383688,9.13983125 14.6698062,9.91120625 14.1782438,10.7313937 C13.7031813,11.5068937 13.2239938,12.2789562 12.7468688,13.0517062 C12.7104313,13.1245812 12.6540563,13.1850812 12.5846188,13.2270187 C12.5144938,13.2675812 12.4340563,13.2882062 12.3536187,13.2847687 C12.2986188,13.2833937 12.2449938,13.2703312 12.1961812,13.2462687 C12.1473688,13.2222062 12.1047438,13.1878312 12.0703688,13.1445187 C12.0353063,13.0998312 12.0029937,13.0530812 11.9734313,13.0042687 C11.3629313,12.0307687 10.7799312,11.0407687 10.1501812,10.0796437 C9.61049375,9.25189375 8.97661875,8.49014375 8.26093125,7.81020625 C7.52805625,7.10895625 6.68724375,6.53283125 5.77080625,6.10383125 L5.73505625,6.08801875 C5.69036875,6.06120625 5.63949375,6.04676875 5.58861875,6.04608125 C5.53705625,6.04539375 5.48618125,6.05845625 5.44080625,6.08389375 C5.39543125,6.10864375 5.35830625,6.14576875 5.33218125,6.19045625 C5.30536875,6.23514375 5.29093125,6.28601875 5.29093125,6.33826875 C5.28405625,6.40770625 5.28199375,6.47714375 5.28474375,6.54726875 L5.28474375,27.5325187 L5.28474375,27.7573312 C5.28061875,27.8542687 5.24418125,27.9470812 5.18161875,28.0206437 C5.14930625,28.0646437 5.10943125,28.1010812 5.06130625,28.1265187 C5.01455625,28.1526437 4.96299375,28.1677687 4.90936875,28.1718937 C4.85574375,28.1753312 4.80211875,28.1670812 4.75193125,28.1478312 C4.70174375,28.1285812 4.65636875,28.0990187 4.61924375,28.0598312 C4.47074375,27.9127062 4.33118125,27.7559562 4.19299375,27.5998937 C3.88430625,27.2499562 3.57561875,26.9000187 3.26693125,26.5487062 C2.69561875,25.8948937 2.14011875,25.2266437 1.60180625,24.5446437 C1.43955625,24.3397687 1.28005625,24.1307687 1.11643125,23.9238312 C0.79193125,23.5230187 0.62074375,23.0190812 0.63311875,22.5027687 C0.63724375,18.9394562 0.63724375,15.3733937 0.63449375,11.8052687" id="Fill-4" fill="#FFFFFF" mask="url(#mask-4)"></path>
                    </g>
                </g>
            </g>
        </g>
    </g>
</svg>